{
  "source": "C:\\Users\\Peter\\Desktop\\stuff\\MIUN\\quantitative_research\\video_compression\\videos\\BVI-HD\\BVI-HD_CDVL_videos\\ORIG\\Bookcase_1920x1080_60fps.mp4",
  "output": "C:\\Users\\Peter\\Desktop\\stuff\\MIUN\\quantitative_research\\video_compression\\compressed_videos\\BVI-HD\\av1\\2.5\\Bookcase_1920x1080_60fps_av1.mkv",
  "codec": "av1",
  "ok": "Input #0, mov,mp4,m4a,3gp,3g2,mj2, from 'C:\\Users\\Peter\\Desktop\\stuff\\MIUN\\quantitative_research\\video_compression\\videos\\BVI-HD\\BVI-HD_CDVL_videos\\ORIG\\Bookcase_1920x1080_60fps.mp4':\n  Metadata:\n    major_brand     : isom\n    minor_version   : 512\n    compatible_brands: isomiso2avc1mp41\n    encoder         : Lavf54.28.101\n  Duration: 00:00:05.00, start: 0.000000, bitrate: 336321 kb/s\n  Stream #0:0[0x1](und): Video: h264 (High 4:4:4 Predictive) (avc1 / 0x31637661), yuv420p(progressive), 1920x1080, 336316 kb/s, 60 fps, 60 tbr, 60 tbn (default)\n    Metadata:\n      handler_name    : VideoHandler\n      vendor_id       : [0][0][0][0]\n[out#0/matroska @ 000001ce646aad80] Codec AVOption b:a (set bitrate (in bits/s)) has not been used for any stream. The most likely reason is either wrong type (e.g. a video option with no video streams) or that it is a private option of some decoder which was not actually used for any stream.\nStream mapping:\n  Stream #0:0 -> #0:0 (h264 (native) -> av1 (libsvtav1))\nPress [q] to stop, [?] for help\nSvt[info]: -------------------------------------------\nSvt[info]: SVT [version]:\tSVT-AV1 Encoder Lib v3.1.0-19-g6ecfe8ec\nSvt[info]: SVT [build]  :\tGCC 15.2.0\t 64 bit\nSvt[info]: LIB Build date: Aug 17 2025 11:37:13\nSvt[info]: -------------------------------------------\nSvt[info]: Level of Parallelism: 5\nSvt[info]: Number of PPCS 93\nSvt[info]: [asm level on system : up to avx2]\nSvt[info]: [asm level selected : up to avx2]\nSvt[info]: -------------------------------------------\nSvt[info]: SVT [config]: main profile\ttier (auto)\tlevel (auto)\nSvt[info]: SVT [config]: width / height / fps numerator / fps denominator \t\t: 1920 / 1080 / 60 / 1\nSvt[info]: SVT [config]: bit-depth / color format \t\t\t\t\t: 8 / YUV420\nSvt[info]: SVT [config]: preset / tune / pred struct \t\t\t\t\t: 4 / PSNR / random access\nSvt[info]: SVT [config]: gop size / mini-gop size / key-frame type \t\t\t: 321 / 16 / key frame\nSvt[info]: SVT [config]: BRC mode / target bitrate (kbps)\t\t\t\t: VBR / 2500 \nSvt[info]: SVT [config]: AQ mode / Variance Boost \t\t\t\t\t: 2 / 0\nSvt[info]: SVT [config]: sharpness / luminance-based QP bias \t\t\t\t: 0 / 0\nSvt[info]: SVT [config]: QP scale compress strength \t\t\t\t\t: 0\nSvt[info]: -------------------------------------------\nOutput #0, matroska, to 'C:\\Users\\Peter\\Desktop\\stuff\\MIUN\\quantitative_research\\video_compression\\compressed_videos\\BVI-HD\\av1\\2.5\\Bookcase_1920x1080_60fps_av1.mkv':\n  Metadata:\n    major_brand     : isom\n    minor_version   : 512\n    compatible_brands: isomiso2avc1mp41\n    encoder         : Lavf62.3.100\n  Stream #0:0(und): Video: av1 (AV01 / 0x31305641), yuv420p(tv, progressive), 1920x1080, q=2-31, 2500 kb/s, 60 fps, 1k tbn (default)\n    Metadata:\n      encoder         : Lavc62.11.100 libsvtav1\n      handler_name    : VideoHandler\n      vendor_id       : [0][0][0][0]\n    Side data:\n      cpb: bitrate max/min/avg: 0/0/2500000 buffer size: 2500000 vbv_delay: N/A\nframe=    0 fps=0.0 q=0.0 size=       0KiB time=N/A bitrate=N/A speed=N/A elapsed=0:00:01.04    \nframe=    0 fps=0.0 q=0.0 size=       0KiB time=N/A bitrate=N/A speed=N/A elapsed=0:00:01.60    \nframe=    0 fps=0.0 q=0.0 size=       0KiB time=N/A bitrate=N/A speed=N/A elapsed=0:00:02.12    \nframe=    0 fps=0.0 q=0.0 size=       0KiB time=N/A bitrate=N/A speed=N/A elapsed=0:00:02.66    \nframe=    0 fps=0.0 q=0.0 size=       0KiB time=N/A bitrate=N/A speed=N/A elapsed=0:00:03.18    \nframe=    1 fps=0.3 q=15.0 size=       1KiB time=00:00:00.00 bitrate=N/A speed=   0x elapsed=0:00:03.69    \nframe=    3 fps=0.7 q=40.0 size=       1KiB time=00:00:00.03 bitrate= 170.9kbits/s speed=0.00793x elapsed=0:00:04.20    \nframe=   10 fps=2.1 q=38.0 size=       1KiB time=00:00:00.15 bitrate=  38.0kbits/s speed=0.0316x elapsed=0:00:04.74    \nframe=   15 fps=2.8 q=37.0 size=       1KiB time=00:00:00.23 bitrate=  24.4kbits/s speed=0.044x elapsed=0:00:05.30    \nframe=   21 fps=3.6 q=36.0 size=       1KiB time=00:00:00.33 bitrate=  17.1kbits/s speed=0.0571x elapsed=0:00:05.84    \nframe=   25 fps=3.9 q=29.0 size=       1KiB time=00:00:00.40 bitrate=  14.2kbits/s speed=0.063x elapsed=0:00:06.34    \nframe=   28 fps=4.1 q=28.0 size=       1KiB time=00:00:00.45 bitrate=  12.7kbits/s speed=0.0655x elapsed=0:00:06.87    \nframe=   36 fps=4.9 q=27.0 size=       1KiB time=00:00:00.58 bitrate=   9.8kbits/s speed=0.0789x elapsed=0:00:07.39    \nframe=   39 fps=4.9 q=28.0 size=       1KiB time=00:00:00.63 bitrate=   9.0kbits/s speed=0.0798x elapsed=0:00:07.93    \nframe=   42 fps=5.0 q=24.0 size=       1KiB time=00:00:00.68 bitrate=   8.3kbits/s speed=0.0807x elapsed=0:00:08.46    \nframe=   47 fps=5.2 q=24.0 size=       1KiB time=00:00:00.76 bitrate=   7.4kbits/s speed=0.0853x elapsed=0:00:08.98    \nframe=   51 fps=5.4 q=24.0 size=       1KiB time=00:00:00.83 bitrate=   6.8kbits/s speed=0.0876x elapsed=0:00:09.51    \nframe=   55 fps=5.5 q=28.0 size=       1KiB time=00:00:00.90 bitrate=   6.3kbits/s speed=0.0896x elapsed=0:00:10.04    \nframe=   61 fps=5.8 q=31.0 size=       1KiB time=00:00:00.98 bitrate=   5.8kbits/s speed=0.0928x elapsed=0:00:10.59    \nframe=   66 fps=5.9 q=25.0 size=       1KiB time=00:00:01.08 bitrate=   5.3kbits/s speed=0.0974x elapsed=0:00:11.12    \nframe=   71 fps=6.1 q=25.0 size=       1KiB time=00:00:01.16 bitrate=   4.9kbits/s speed= 0.1x elapsed=0:00:11.64    \nframe=   73 fps=6.0 q=23.0 size=       1KiB time=00:00:01.20 bitrate=   4.7kbits/s speed=0.0987x elapsed=0:00:12.15    \nframe=   80 fps=6.3 q=26.0 size=       1KiB time=00:00:01.31 bitrate=   4.3kbits/s speed=0.104x elapsed=0:00:12.67    \nframe=   86 fps=6.5 q=27.0 size=       1KiB time=00:00:01.41 bitrate=   4.0kbits/s speed=0.107x elapsed=0:00:13.21    \nframe=   89 fps=6.5 q=22.0 size=       1KiB time=00:00:01.46 bitrate=   3.9kbits/s speed=0.107x elapsed=0:00:13.73    \nframe=   95 fps=6.7 q=27.0 size=       1KiB time=00:00:01.56 bitrate=   3.6kbits/s speed=0.11x elapsed=0:00:14.26    \nframe=  102 fps=6.9 q=29.0 size=       1KiB time=00:00:01.68 bitrate=   3.4kbits/s speed=0.114x elapsed=0:00:14.80    \nframe=  104 fps=6.8 q=26.0 size=       1KiB time=00:00:01.71 bitrate=   3.3kbits/s speed=0.112x elapsed=0:00:15.31    \nframe=  111 fps=7.0 q=28.0 size=       1KiB time=00:00:01.81 bitrate=   3.1kbits/s speed=0.115x elapsed=0:00:15.83    \nframe=  115 fps=7.0 q=29.0 size=       1KiB time=00:00:01.90 bitrate=   3.0kbits/s speed=0.116x elapsed=0:00:16.37    \nframe=  120 fps=7.1 q=29.0 size=       1KiB time=00:00:01.96 bitrate=   2.9kbits/s speed=0.116x elapsed=0:00:16.89    \nframe=  126 fps=7.2 q=30.0 size=       1KiB time=00:00:02.06 bitrate=   2.8kbits/s speed=0.118x elapsed=0:00:17.46    \nframe=  130 fps=7.2 q=30.0 size=       1KiB time=00:00:02.15 bitrate=   2.6kbits/s speed=0.119x elapsed=0:00:18.00    \nframe=  135 fps=7.3 q=29.0 size=       1KiB time=00:00:02.23 bitrate=   2.6kbits/s speed=0.121x elapsed=0:00:18.51    \nframe=  140 fps=7.3 q=30.0 size=       1KiB time=00:00:02.30 bitrate=   2.5kbits/s speed=0.121x elapsed=0:00:19.04    \nframe=  146 fps=7.5 q=32.0 size=       1KiB time=00:00:02.41 bitrate=   2.4kbits/s speed=0.124x elapsed=0:00:19.56    \nframe=  151 fps=7.5 q=31.0 size=       1KiB time=00:00:02.50 bitrate=   2.3kbits/s speed=0.124x elapsed=0:00:20.11    \nframe=  155 fps=7.5 q=31.0 size=       1KiB time=00:00:02.56 bitrate=   2.2kbits/s speed=0.124x elapsed=0:00:20.66    \nframe=  160 fps=7.5 q=32.0 size=       1KiB time=00:00:02.65 bitrate=   2.1kbits/s speed=0.125x elapsed=0:00:21.20    \nframe=  166 fps=7.6 q=33.0 size=       1KiB time=00:00:02.75 bitrate=   2.1kbits/s speed=0.127x elapsed=0:00:21.73    \nframe=  170 fps=7.6 q=34.0 size=       1KiB time=00:00:02.81 bitrate=   2.0kbits/s speed=0.127x elapsed=0:00:22.25    \nframe=  176 fps=7.7 q=35.0 size=       1KiB time=00:00:02.91 bitrate=   2.0kbits/s speed=0.128x elapsed=0:00:22.77    \nframe=  183 fps=7.8 q=36.0 size=       1KiB time=00:00:03.03 bitrate=   1.9kbits/s speed=0.13x elapsed=0:00:23.31    \nframe=  187 fps=7.8 q=37.0 size=       1KiB time=00:00:03.10 bitrate=   1.8kbits/s speed=0.13x elapsed=0:00:23.86    \nframe=  194 fps=8.0 q=38.0 size=       1KiB time=00:00:03.21 bitrate=   1.8kbits/s speed=0.132x elapsed=0:00:24.38    \nframe=  198 fps=8.0 q=39.0 size=       1KiB time=00:00:03.28 bitrate=   1.7kbits/s speed=0.132x elapsed=0:00:24.89    \nframe=  207 fps=8.1 q=38.0 size=       1KiB time=00:00:03.43 bitrate=   1.7kbits/s speed=0.135x elapsed=0:00:25.42    \nframe=  213 fps=8.2 q=35.0 size=       1KiB time=00:00:03.53 bitrate=   1.6kbits/s speed=0.136x elapsed=0:00:25.95    \nframe=  219 fps=8.3 q=37.0 size=       1KiB time=00:00:03.60 bitrate=   1.6kbits/s speed=0.136x elapsed=0:00:26.49    \nframe=  229 fps=8.5 q=37.0 size=       1KiB time=00:00:03.80 bitrate=   1.5kbits/s speed=0.141x elapsed=0:00:27.02    \nframe=  237 fps=8.6 q=37.0 size=       1KiB time=00:00:03.93 bitrate=   1.4kbits/s speed=0.143x elapsed=0:00:27.56    \nframe=  245 fps=8.7 q=36.0 size=       1KiB time=00:00:04.06 bitrate=   1.4kbits/s speed=0.145x elapsed=0:00:28.08    \nframe=  253 fps=8.8 q=34.0 size=       1KiB time=00:00:04.20 bitrate=   1.4kbits/s speed=0.147x elapsed=0:00:28.62    \nframe=  261 fps=9.0 q=38.0 size=       1KiB time=00:00:04.33 bitrate=   1.3kbits/s speed=0.149x elapsed=0:00:29.12    \nframe=  269 fps=9.1 q=38.0 size=       1KiB time=00:00:04.46 bitrate=   1.3kbits/s speed=0.151x elapsed=0:00:29.64    \nframe=  279 fps=9.2 q=36.0 size=       1KiB time=00:00:04.63 bitrate=   1.2kbits/s speed=0.154x elapsed=0:00:30.16    \nframe=  287 fps=9.4 q=40.0 size=       1KiB time=00:00:04.76 bitrate=   1.2kbits/s speed=0.155x elapsed=0:00:30.67    \n[out#0/matroska @ 000001ce646aad80] video:1402KiB audio:0KiB subtitle:0KiB other streams:0KiB global headers:0KiB muxing overhead: 0.148183%\nframe=  300 fps=9.8 q=44.0 Lsize=    1404KiB time=00:00:04.98 bitrate=2307.7kbits/s speed=0.162x elapsed=0:00:30.75    \n",
  "seconds": 31.18852734565735,
  "probe_out": {}
}